<svg xmlns="http://www.w3.org/2000/svg" width="31.024" height="30.948" viewBox="0 0 31.024 30.948"><defs><style>.a{fill:#fff;}</style></defs><path class="a" d="M12.391,27.789v3.142l-.76-.614A50.936,50.936,0,0,1,5.888,24.7C1.981,20.216,0,16.189,0,12.734v-.342a12.391,12.391,0,0,1,24.783,0v.342c0,.29-.015.585-.043.883l-2.423-2.211a9.974,9.974,0,0,0-19.9.985v.342C2.418,18.573,9.941,25.642,12.391,27.789Zm7.435-1.737h3.627V22.425H19.826Zm-7.435-18.8a5.138,5.138,0,1,1-5.138,5.138A5.144,5.144,0,0,1,12.391,7.253Zm0,2.418a2.72,2.72,0,1,0,2.72,2.72A2.723,2.723,0,0,0,12.391,9.671Zm17,14.738-.68-.62V27.67a3.282,3.282,0,0,1-3.278,3.278H17.782A3.282,3.282,0,0,1,14.5,27.67V23.789l-.68.62-1.629-1.786,9.415-8.589,9.415,8.589Zm-3.1-2.826-4.688-4.276-4.687,4.276V27.67a.861.861,0,0,0,.86.86h7.655a.861.861,0,0,0,.86-.86Zm0,0"/></svg>