<svg xmlns="http://www.w3.org/2000/svg" width="31.002" height="31" viewBox="0 0 31.002 31"><defs><style>.a{fill:#fff;}</style></defs><g transform="translate(0.003)"><g transform="translate(-0.003)"><path class="a" d="M13.835,18.191a12.511,12.511,0,0,1-3.778-7.1,1.063,1.063,0,0,1,.305-.889L12.757,7.8a1.069,1.069,0,0,0,.151-1.323L9.1.562A1.069,1.069,0,0,0,7.71.172L1.59,3.055A1.063,1.063,0,0,0,1,4.117c.321,3.047,1.649,10.536,9.009,17.9s14.848,8.688,17.9,9.009a1.063,1.063,0,0,0,1.062-.588l2.882-6.12a1.069,1.069,0,0,0-.387-1.383l-5.92-3.811a1.069,1.069,0,0,0-1.323.15l-2.393,2.394a1.063,1.063,0,0,1-.889.305,12.511,12.511,0,0,1-7.1-3.778Z" transform="translate(-0.997 -0.028)"/><path class="a" d="M38.155,21.224a1.069,1.069,0,0,1-1.069-1.069,8.026,8.026,0,0,0-8.017-8.017,1.069,1.069,0,0,1,0-2.138A10.166,10.166,0,0,1,39.224,20.155,1.069,1.069,0,0,1,38.155,21.224Z" transform="translate(-13.567 -4.655)"/><path class="a" d="M43.5,16.569A1.069,1.069,0,0,1,42.431,15.5,13.377,13.377,0,0,0,29.069,2.138a1.069,1.069,0,1,1,0-2.138,15.517,15.517,0,0,1,15.5,15.5A1.069,1.069,0,0,1,43.5,16.569Z" transform="translate(-13.567)"/></g></g></svg>