<svg xmlns="http://www.w3.org/2000/svg" xmlns:xlink="http://www.w3.org/1999/xlink" width="537.808" height="427.559" viewBox="0 0 537.808 427.559"><defs><style>.a,.b{fill:#6c63ff;}.a,.e,.p,.q{opacity:0.1;}.c{fill:#444053;}.d{fill:#d5d6db;}.f,.h{fill:#fff;}.f{opacity:0.3;}.g{fill:#3a3768;}.h{opacity:0.45;}.i{fill:url(#a);}.j{fill:#be6f72;}.k{fill:#3e373a;}.l{fill:#4b4b5b;}.m{opacity:0.02;}.n{fill:#e7c7ca;}.o{fill:#c3c7d9;}.q{fill:none;stroke:#000;stroke-miterlimit:10;}.r{fill:#ffd037;}.s{fill:#65617d;}.t{fill:#9d9cb5;}</style><linearGradient id="a" x1="0.5" y1="1" x2="0.5" gradientUnits="objectBoundingBox"><stop offset="0" stop-color="gray" stop-opacity="0.251"/><stop offset="0.54" stop-color="gray" stop-opacity="0.122"/><stop offset="1" stop-color="gray" stop-opacity="0.102"/></linearGradient></defs><g transform="translate(0 -0.008)"><path class="a" d="M410.3,128.013c-34.03-1.183-66.445-12.167-97.394-24.187s-61.6-25.338-94.817-31.706c-21.363-4.1-45.8-4.674-63.006,6.778-16.568,11.042-21.921,30.049-24.8,47.706-2.166,13.282-3.439,27.257,2.5,39.693,4.117,8.634,11.431,15.89,16.484,24.187,17.6,28.772,5.163,64.253-13.907,92.346-8.939,13.182-19.323,25.764-26.222,39.782s-10.1,30.1-4.059,44.414c5.989,14.2,20.254,24.839,35.7,32.331C172.161,414.578,209.13,418.932,245.2,421.4c79.832,5.463,160.085,3.1,240.127.731,29.623-.878,59.373-1.767,88.513-6.346,16.184-2.545,32.889-6.578,44.64-16.326,14.912-12.372,18.608-33.325,8.618-48.836-16.768-26.022-63.1-32.484-74.832-60.414-6.446-15.369.179-32.489,9.549-46.749,20.107-30.58,53.8-57.412,55.582-92.367,1.22-24.013-14.985-48.053-40.034-59.415-26.253-11.951-62.67-10.437-82.03,9.275C475.389,121.262,440.339,129.054,410.3,128.013Z" transform="translate(-94.89 -55.754)"/><path class="b" d="M257.013,551.834l-179.97-.878L59.16,509.013l63.233-4.59-11.021-45.986,125.066-16.21L116.677,400.593l10.579-2.513L319.83,429.5l-10.605,71.766L294.066,540.7Z" transform="translate(-28.054 -188.767)"/><path class="b" d="M187,698.685s11.042-1.767,17.667,6.036c0,0-4.858,3.828-15.311-1.472Z" transform="translate(-135.251 -354.063)"/><path class="b" d="M180.709,698.51s-7.046,8.67-3.575,18.324c0,0,5.742-2.3,6.367-14Z" transform="translate(-130.117 -354.061)"/><path class="b" d="M172.76,668.871s4.417-8.1,22.084,3.239c0,0-2.356,5.447-10.158,5.006S174.821,673.141,172.76,668.871Z" transform="translate(-128.498 -338.677)"/><path class="b" d="M161.523,670.282s-9.165-1.052-10.053,19.928c0,0,5.81,1.2,9.938-5.431S163.842,674.42,161.523,670.282Z" transform="translate(-118.403 -340.671)"/><path class="b" d="M160.44,631.452s5.153-14.281,23.85-4.122c0,0-4.269,13.1-21.936,8.981Z" transform="translate(-122.656 -318.578)"/><path class="b" d="M149.52,591.785s9.717-14.428,26.942-1.052c0,0-6.036,13.545-25.47,6.183Z" transform="translate(-117.478 -300.258)"/><path class="b" d="M145.6,553.907s11.336-13.255,28.393,0c0,0-10.747,11.631-28.393,3.386Z" transform="translate(-115.619 -282.697)"/><path class="b" d="M142.24,515.941s11.483-13.839,27.825-.736c0,0-12.956,12.22-27.825,3.975Z" transform="translate(-114.026 -264.464)"/><path class="b" d="M144.2,479.407s12.093-17.814,27.384-5.742c0,0-12.956,15.311-27.384,9.128Z" transform="translate(-114.955 -245.45)"/><path class="b" d="M149.52,441.124S162.328,423.457,177.2,437c0,0-15.164,15.311-27.678,7.361Z" transform="translate(-117.478 -227.63)"/><path class="b" d="M157.043,404.246s15.164-16.6,28.393-9.99c0,0-15.8,17.635-29.056,14.4Z" transform="translate(-120.731 -209.045)"/><path class="b" d="M166.6,368.212s17.5-20.338,27.678-13.545c0,0-12.893,15.774-28.919,17.351Z" transform="translate(-124.989 -190.352)"/><path class="b" d="M180.416,331.579s15.317-16.6,26.506-12.482c0,0-13.1,17.225-28.561,17.667Z" transform="translate(-131.154 -173.831)"/><path class="b" d="M194.776,295.535s16.931-15.9,24.292-13.1c0,0-12.22,17.667-25.028,16.636Z" transform="translate(-138.589 -156.6)"/><path class="b" d="M208.32,258.731s14.575-19,22.53-17.525c0,0-8.839,16.936-22.53,19.455Z" transform="translate(-145.361 -137.169)"/><path class="b" d="M221.821,216.958S234.7,202.4,241.665,202.43c0,0-10.169,19.455-20.375,19.276Z" transform="translate(-151.511 -118.819)"/><path class="b" d="M229.153,173.048,241.6,142.72s.62,27.415-14.028,35.954Z" transform="translate(-154.489 -90.505)"/><path class="b" d="M240.114,112.089s2.061-25.328.736-27.389c0,0,8.9,21.058-.82,38.578Z" transform="translate(-160.398 -62.991)"/><path class="b" d="M140.348,636.361s-12.9-8-21.258,11.568c0,0,11.483,7.624,22.778-6.578Z" transform="translate(-103.048 -323.823)"/><path class="b" d="M127.533,595.194s-15.827-7.219-23.5,13.208c0,0,12.225,8.413,24.944-8.045Z" transform="translate(-95.906 -304.481)"/><path class="b" d="M118.593,556.217s-11.336-13.255-28.393,0c0,0,10.747,11.631,28.393,3.386Z" transform="translate(-89.348 -283.792)"/><path class="b" d="M116.405,515.941S104.922,502.1,88.58,515.2c0,0,12.956,12.22,27.825,3.975Z" transform="translate(-88.58 -264.464)"/><path class="b" d="M121.144,477.14s-8.055-19.954-25.564-11.373c0,0,9.464,17.693,24.849,14.686Z" transform="translate(-91.899 -242.678)"/><path class="b" d="M128.214,437.194s-8.008-20.3-25.764-10.889c0,0,10.874,18.608,24.975,14.023Z" transform="translate(-95.157 -223.8)"/><path class="b" d="M144.767,392.98s-3.155-22.257-17.877-24.25c0,0,3.123,23.472,15.895,28.262Z" transform="translate(-106.747 -197.679)"/><path class="b" d="M156.343,356.732s-1.23-26.816-13.4-27.752c0,0,.41,20.354,12.03,31.548Z" transform="translate(-114.358 -178.829)"/><path class="b" d="M170.918,319.433s-3.628-22.3-15.248-25.023c0,0,1.441,21.595,14.1,30.5Z" transform="translate(-120.394 -162.436)"/><path class="b" d="M190.638,283.972s-.121-23.23-7.219-26.642c0,0-4.4,21.032,5.163,29.608Z" transform="translate(-133.073 -144.853)"/><path class="b" d="M201.562,249.5s-.994-23.919-8.344-27.289c0,0-2.513,18.929,7.246,28.856Z" transform="translate(-138.062 -128.199)"/><path class="b" d="M217.934,212.028s-.042-19.455-5.29-24.018c0,0-5.216,21.311,2.55,27.93Z" transform="translate(-146.599 -111.981)"/><path class="b" d="M223.046,169.379,217.941,137s-6.935,26.532,5.347,38.226Z" transform="translate(-148.998 -87.792)"/><path class="b" d="M219.721,115.557s-13.1-21.768-12.835-24.187c0,0,1.393,22.814,17.877,34.177Z" transform="translate(-144.679 -66.154)"/><path class="b" d="M218.021,95S205.655,64.083,200.06,61.58c0,0,17.667,8.981,18.992,32.536Z" transform="translate(-141.444 -52.028)"/><path class="c" d="M220.407,183.456l-.847-.258c10.437-34.035,13.04-55.735,7.335-61.177l.6-.641C233.551,127.122,231.1,148.585,220.407,183.456Z" transform="translate(-150.691 -80.385)"/><path class="c" d="M165.381,316.887l-1.251-.447c1.109-3.118,2.3-6.283,3.554-9.4,10.895-27.152,20.17-52.412,26.116-71.8l1.088-.526c-5.957,19.428-15.069,45.655-25.974,72.844C167.669,310.614,166.48,313.764,165.381,316.887Z" transform="translate(-124.406 -134.126)"/><path class="c" d="M180.2,575.666c-.168-.184-17.083-19.234-28.877-51.754a191.485,191.485,0,0,1-11.394-59.3c-.81-25.307,4.5-53.563,13.6-79.233l.989,1.157c-20.422,57.612-12.309,106.979-1.546,136.708,11.667,32.226,28.393,51.065,28.556,51.255Z" transform="translate(-112.89 -205.574)"/><path class="d" d="M619.234,670.36s-11.92,14.549-2.455,36.543l-95.17,41.275-9.133,1.914-4.206-18.4,2.813-23.225V695.772Z" transform="translate(-287.598 -340.712)"/><path class="b" d="M59.16,587.4,190.883,563.39l174.539,27.8-108.409,39.03Z" transform="translate(-28.054 -267.157)"/><path class="b" d="M59.16,587.4,190.883,563.39l174.539,27.8-108.409,39.03Z" transform="translate(-28.054 -267.157)"/><path class="b" d="M143.268,652.47s-12.319,23.34,1.877,44.9l195.334,42.327s-12.125-18.592.626-44.4Z" transform="translate(-112.162 -332.229)"/><path class="e" d="M143.268,652.47s-12.319,23.34,1.877,44.9l195.334,42.327s-12.125-18.592.626-44.4Z" transform="translate(-112.162 -332.229)"/><path class="e" d="M155.988,667.86s-7.04,17.078,0,28.13" transform="translate(-119.061 -339.527)"/><path class="b" d="M346.644,776.393,455.695,729.86s6.1,1.315,2.156,5.784-109.1,45.219-109.1,45.219l-197.437-46.8Z" transform="translate(-118.327 -368.927)"/><path class="e" d="M346.644,776.393,455.695,729.86s6.1,1.315,2.156,5.784-109.1,45.219-109.1,45.219l-197.437-46.8Z" transform="translate(-118.327 -368.927)"/><path class="e" d="M501.595,742.86s-10.516,12.619,0,31.548" transform="translate(-282.216 -375.092)"/><rect class="e" width="49.725" height="0.526" transform="translate(223.123 383.29) rotate(-18.45)"/><rect class="e" width="60.588" height="0.526" transform="translate(223.105 387.524) rotate(-20.82)"/><rect class="e" width="70.226" height="0.526" transform="translate(223.421 392.513) rotate(-22.26)"/><rect class="e" width="80.836" height="0.526" transform="translate(224.179 396.914) rotate(-24.31)"/><rect class="e" width="88.413" height="0.526" transform="matrix(0.916, -0.401, 0.401, 0.916, 224.764, 399.055)"/><rect class="e" width="105.801" height="0.526" transform="translate(225.987 402.651) rotate(-23.36)"/><path class="f" d="M152.23,596.395l92.541-19.455,56.376,10.779-75.831,24.45Z" transform="translate(-72.188 -273.582)"/><path class="b" d="M632.425,659.69s4.785,1.93,1.977,4.911S524,698.72,524,698.72Z" transform="translate(-295.057 -335.653)"/><path class="d" d="M718.529,574.18s-11.915,14.544-2.45,36.543L620.909,652l-9.133,1.924-4.206-18.4,2.855-23.219V599.592Z" transform="translate(-334.686 -295.104)"/><path class="g" d="M158.46,491.218,290.178,467.21l174.544,27.8-108.409,39.03Z" transform="translate(-75.142 -221.548)"/><path class="g" d="M242.524,556.29s-12.325,23.34,1.872,44.9L439.73,643.515s-12.12-18.608.647-44.4Z" transform="translate(-159.228 -286.62)"/><path class="e" d="M242.524,556.29s-12.325,23.34,1.872,44.9L439.73,643.515s-12.12-18.608.647-44.4L378.606,585.74Z" transform="translate(-159.228 -286.62)"/><path class="e" d="M255.28,571.68s-7.035,17.073,0,28.13" transform="translate(-166.147 -293.918)"/><path class="g" d="M445.934,680.213,554.99,633.68s6.094,1.314,2.151,5.784-109.1,45.219-109.1,45.219L250.6,637.886Z" transform="translate(-165.41 -323.319)"/><path class="e" d="M445.934,680.213,554.99,633.68s6.094,1.314,2.151,5.784-109.1,45.219-109.1,45.219L250.6,637.886Z" transform="translate(-165.41 -323.319)"/><path class="e" d="M600.885,646.68s-10.516,12.619,0,31.548" transform="translate(-329.3 -329.483)"/><rect class="e" width="49.725" height="0.526" transform="translate(275.333 332.725) rotate(-18.45)"/><rect class="e" width="60.588" height="0.526" transform="translate(275.322 336.956) rotate(-20.82)"/><rect class="e" width="70.226" height="0.526" transform="translate(275.631 341.938) rotate(-22.26)"/><rect class="e" width="80.836" height="0.526" transform="translate(276.395 346.339) rotate(-24.31)"/><rect class="e" width="88.413" height="0.526" transform="matrix(0.916, -0.401, 0.401, 0.916, 276.972, 348.474)"/><rect class="e" width="105.801" height="0.526" transform="translate(278.199 352.07) rotate(-23.36)"/><path class="h" d="M251.53,500.215l92.54-19.455,56.376,10.779-75.831,24.45Z" transform="translate(-119.276 -227.974)"/><path class="g" d="M731.739,563.51s4.78,1.93,1.977,4.906S623.33,602.535,623.33,602.535Z" transform="translate(-342.159 -290.044)"/><path class="d" d="M727.943,464.15s-11.92,26.116-2.455,48.111l-95.17,29.708-9.112,1.93L617,525.495l2.813-23.225V489.562Z" transform="translate(-339.158 -242.927)"/><path class="b" d="M167.89,381.193,299.613,357.18l174.544,27.8-108.414,39.03Z" transform="translate(-79.614 -169.372)"/><path class="b" d="M251.985,446.26s-12.34,23.34,1.856,44.9l195.334,42.327s-12.125-18.608.641-44.4Z" transform="translate(-163.708 -234.444)"/><path class="e" d="M251.985,446.26s-12.34,23.34,1.856,44.9l195.334,42.327s-12.125-18.608.641-44.4Z" transform="translate(-163.708 -234.444)"/><path class="e" d="M264.718,461.65s-7.04,17.078,0,28.13" transform="translate(-170.621 -241.742)"/><path class="b" d="M455.374,573.977l109.051-34.966s6.1,1.315,2.156,5.784-109.1,33.651-109.1,33.651L260.04,531.65Z" transform="translate(-169.887 -274.936)"/><path class="e" d="M455.374,573.977l109.051-34.966s6.1,1.315,2.156,5.784-109.1,33.651-109.1,33.651L260.04,531.65Z" transform="translate(-169.887 -274.936)"/><path class="e" d="M610.325,536.65s-10.516,12.619,0,31.548" transform="translate(-333.776 -277.307)"/><rect class="e" width="49.725" height="0.526" transform="translate(280.298 274.87) rotate(-18.45)"/><rect class="e" width="60.588" height="0.526" transform="translate(280.284 279.104) rotate(-20.82)"/><rect class="e" width="70.226" height="0.526" transform="translate(280.587 284.089) rotate(-22.26)"/><rect class="e" width="80.836" height="0.526" transform="translate(281.359 288.485) rotate(-24.31)"/><rect class="e" width="88.413" height="0.526" transform="matrix(0.916, -0.401, 0.401, 0.916, 281.938, 290.625)"/><rect class="e" width="105.801" height="0.526" transform="translate(283.163 294.224) rotate(-23.36)"/><path class="f" d="M260.96,390.185,353.5,370.73l56.376,10.779-75.831,24.45Z" transform="translate(-123.748 -175.797)"/><path class="b" d="M741.169,453.48s4.785,1.93,1.977,4.911S632.76,492.51,632.76,492.51Z" transform="translate(-346.631 -237.868)"/><path class="b" d="M382.915,149.9s-19.98-1.2-17.646,12.814a3.419,3.419,0,0,0,1.777,3.6s.037-1.052,2.051-.689a8.967,8.967,0,0,0,2.177.105,4.533,4.533,0,0,0,2.655-1.094h0s5.621-2.324,7.808-11.515c0,0,1.619-2,1.577-2.519l-3.386,1.441a6.067,6.067,0,0,1,.247,4.459s-.11-4.369-.762-4.27c-.131,0-1.751.847-1.751.847s1.982,4.243.484,7.324c0,0,.568-5.226-1.1-7.019l-2.377,1.388s2.319,4.38.747,7.955c0,0,.4-5.484-1.246-7.619l-2.156,1.683s2.182,4.317.852,7.282c0,0-.174-6.383-1.315-6.867a13,13,0,0,0-2.172,2.345s1.493,3.155.563,4.79c0,0-.563-4.254-1.052-4.275,0,0-1.877,2.818-2.072,4.732a10.232,10.232,0,0,1,1.614-5.016,5.631,5.631,0,0,0-2.871,1.488s.289-1.993,3.339-2.166a12.925,12.925,0,0,1,1.966-2.266,12.309,12.309,0,0,0-4.869.557s1.619-1.877,5.421-1.052l2.1-1.735s-3.986-.526-5.679.058c0,0,1.951-1.662,6.252-.452l2.319-1.383a21.07,21.07,0,0,0-5.426-.468s2.135-1.152,6.1.095l1.651-.741s-2.487-.489-3.218-.568-.768-.279-.768-.279a8.681,8.681,0,0,1,4.68.526S382.983,150.117,382.915,149.9Z" transform="translate(-219.696 -93.896)"/><path class="a" d="M917.515,259.477s-19.98-1.2-17.646,12.814a3.419,3.419,0,0,0,1.777,3.6s.037-1.052,2.051-.689a9.266,9.266,0,0,0,2.177.105,4.517,4.517,0,0,0,2.629-1.094h0s5.626-2.324,7.808-11.515c0,0,1.619-2,1.577-2.519l-3.376,1.441a6.067,6.067,0,0,1,.247,4.459s-.11-4.369-.757-4.269c-.131,0-1.756.846-1.756.846s1.982,4.243.489,7.324c0,0,.568-5.226-1.109-7.019l-2.377,1.388s2.319,4.38.747,7.955c0,0,.4-5.484-1.246-7.619L906.6,266.37s2.177,4.317.847,7.282c0,0-.173-6.383-1.314-6.867a13.191,13.191,0,0,0-2.172,2.345s1.493,3.155.568,4.79c0,0-.568-4.254-1.052-4.275,0,0-1.877,2.818-2.072,4.732a10.2,10.2,0,0,1,1.619-5.016,5.657,5.657,0,0,0-2.876,1.488s.294-1.993,3.339-2.166a13.131,13.131,0,0,1,1.966-2.271,12.358,12.358,0,0,0-4.869.563s1.62-1.877,5.421-1.052l2.1-1.735s-3.991-.526-5.678.058c0,0,1.945-1.662,6.252-.452l2.313-1.383a21.069,21.069,0,0,0-5.426-.468s2.135-1.151,6.1.095l1.656-.741s-2.492-.489-3.223-.568-.768-.279-.768-.279a8.618,8.618,0,0,1,4.68.526S917.578,259.7,917.515,259.477Z" transform="translate(-473.205 -145.859)"/><path class="a" d="M443.094,304.141s-8.707-18.051-19.791-9.154a3.415,3.415,0,0,0-2.277,3.307s.92-.478,1.577,1.456a9.316,9.316,0,0,0,.967,1.945,4.538,4.538,0,0,0,2.256,1.788h0s4.769,3.775,13.86,1.2c0,0,2.54.436,2.955.131l-2.9-2.245a6.1,6.1,0,0,1-3.775,2.387s3.765-2.224,3.36-2.739c-.084-.105-1.577-1.12-1.577-1.12s-2.739,3.8-6.157,4c0,0,4.837-2.051,5.584-4.39l-2.366-1.4s-2.7,4.164-6.583,4.532c0,0,4.985-2.319,6.041-4.8l-2.513-1.052s-2.708,4.007-5.947,4.3c0,0,5.489-3.265,5.353-4.5a13.325,13.325,0,0,0-3.108-.752s-2.009,2.834-3.9,2.834c0,0,3.433-2.571,3.223-2.987,0,0-3.376-.263-5.153.526a10.237,10.237,0,0,1,5.169-1.052,5.663,5.663,0,0,0-2.7-1.783s1.882-.715,3.518,1.856a12.971,12.971,0,0,1,2.939.61,12.344,12.344,0,0,0-2.86-3.97s2.429.489,3.539,4.206l2.55,1.01s-1.467-3.744-2.818-4.927c0,0,2.4.889,3.444,5.258l2.335,1.346a20.805,20.805,0,0,0-2.235-4.964s2.045,1.3,2.892,5.374l1.456,1.083s-.789-2.413-1.052-3.086-.131-.81-.131-.81a8.628,8.628,0,0,1,1.83,4.338S442.9,304.3,443.094,304.141Z" transform="translate(-246.225 -161.541)"/><path class="a" d="M826.874,200.521s-8.7-18.051-19.791-9.154a3.422,3.422,0,0,0-2.277,3.307s.926-.473,1.578,1.456a9.118,9.118,0,0,0,.973,1.951,4.511,4.511,0,0,0,2.25,1.782h0s4.774,3.775,13.86,1.2c0,0,2.54.431,2.96.126l-2.887-2.25a6.1,6.1,0,0,1-3.77,2.392s3.759-2.229,3.354-2.745c-.084-.105-1.577-1.12-1.577-1.12s-2.734,3.8-6.157,4c0,0,4.843-2.051,5.589-4.385l-2.4-1.388s-2.692,4.159-6.583,4.532c0,0,4.985-2.324,6.047-4.806l-2.519-1.052s-2.708,4.012-5.942,4.3c0,0,5.484-3.265,5.347-4.5a13.006,13.006,0,0,0-3.1-.752s-2.009,2.829-3.907,2.829c0,0,3.439-2.571,3.228-2.987,0,0-3.376-.263-5.158.526a10.232,10.232,0,0,1,5.169-1.052,5.631,5.631,0,0,0-2.7-1.782s1.882-.715,3.518,1.856a13.017,13.017,0,0,1,2.939.615,12.3,12.3,0,0,0-2.866-3.975s2.429.494,3.539,4.233l2.555,1.01s-1.467-3.749-2.818-4.932c0,0,2.4.889,3.439,5.258l2.34,1.346a21,21,0,0,0-2.24-4.964s2.051,1.3,2.892,5.374l1.456,1.083s-.783-2.413-1.052-3.086-.131-.8-.131-.8a8.65,8.65,0,0,1,1.824,4.338S826.711,200.69,826.874,200.521Z" transform="translate(-428.214 -112.405)"/><path class="a" d="M879.75,370.327s-8.7-18.056-19.807-9.159a3.421,3.421,0,0,0-2.277,3.307s.925-.473,1.577,1.456a9.116,9.116,0,0,0,.967,1.951,4.512,4.512,0,0,0,2.25,1.782h0s4.774,3.781,13.865,1.2c0,0,2.534.436,2.955.126l-2.9-2.245a6.1,6.1,0,0,1-3.775,2.392s3.759-2.229,3.355-2.745c-.084-.105-1.577-1.12-1.577-1.12s-2.734,3.8-6.157,4c0,0,4.843-2.056,5.589-4.39l-2.371-1.4s-2.692,4.164-6.583,4.532c0,0,4.984-2.324,6.047-4.806l-2.518-1.052s-2.708,4.007-5.942,4.3c0,0,5.489-3.265,5.353-4.5a13.063,13.063,0,0,0-3.107-.752s-2.008,2.829-3.907,2.829c0,0,3.439-2.571,3.228-2.987,0,0-3.376-.263-5.158.526a10.264,10.264,0,0,1,5.174-1.052,5.62,5.62,0,0,0-2.7-1.782s1.882-.72,3.518,1.856a12.971,12.971,0,0,1,2.939.61,12.4,12.4,0,0,0-2.86-3.975s2.429.494,3.539,4.233l2.55,1.01s-1.467-3.749-2.818-4.927c0,0,2.4.883,3.439,5.258l2.34,1.341a21,21,0,0,0-2.24-4.964s2.051,1.3,2.9,5.379l1.456,1.052s-.789-2.413-1.052-3.086-.131-.8-.131-.8a8.6,8.6,0,0,1,1.825,4.338S879.587,370.485,879.75,370.327Z" transform="translate(-453.28 -192.925)"/><ellipse class="a" cx="12.088" cy="1.351" rx="12.088" ry="1.351" transform="translate(94.097 409.611)"/><ellipse class="a" cx="12.088" cy="1.351" rx="12.088" ry="1.351" transform="translate(14.854 386.644)"/><ellipse class="a" cx="12.088" cy="1.351" rx="12.088" ry="1.351" transform="translate(154.501 424.864)"/><ellipse class="a" cx="12.088" cy="1.351" rx="12.088" ry="1.351" transform="translate(464.038 391.639)"/><ellipse class="a" cx="12.088" cy="1.351" rx="12.088" ry="1.351" transform="translate(363.448 385.082)"/><ellipse class="a" cx="14.296" cy="2.455" rx="14.296" ry="2.455" transform="translate(296.166 414.853)"/><path class="b" d="M679.831,790.14s-19.907,10.285-9.622,22.4a3.847,3.847,0,0,0,3.765,2.445s-.557-1.02,1.577-1.835a10.255,10.255,0,0,0,2.151-1.141,5.051,5.051,0,0,0,1.924-2.571h0s4.07-5.447.915-15.527c0,0,.41-2.85.053-3.312l-2.419,3.318s2.5,1.677,2.787,4.143c0,0-2.629-4.138-3.155-3.681-.116.095-1.2,1.814-1.2,1.814s4.333,2.939,4.653,6.756c0,0-2.44-5.347-5.074-6.11l-1.509,2.692s4.732,2.881,5.258,7.214c0,0-2.75-5.495-5.558-6.6l-1.109,2.845s4.564,2.9,4.985,6.509c0,0-3.817-6.031-5.19-5.842a14.576,14.576,0,0,0-.747,3.5s3.223,2.156,3.281,4.275c0,0-2.976-3.759-3.433-3.512,0,0-.189,3.78.726,5.747a11.345,11.345,0,0,1-1.32-5.747,6.309,6.309,0,0,0-1.909,3.071s-.857-2.077,1.966-3.991a14.545,14.545,0,0,1,.594-3.3,13.86,13.86,0,0,0-4.354,3.323s.479-2.729,4.622-4.085l1.052-2.881s-4.143,1.756-5.421,3.3c0,0,.92-2.708,5.747-4.007l1.43-2.629a24.148,24.148,0,0,0-5.479,2.629s1.393-2.329,5.921-3.4l1.162-1.656s-2.671.952-3.418,1.293-.894.173-.894.173a9.67,9.67,0,0,1,4.79-2.177S680.016,790.319,679.831,790.14Z" transform="translate(-362.991 -397.512)"/><path class="i" d="M642.7,241.8c-3.439-9.343-22.367-10.222-30.58-7.84-5.836,1.7-18.14,3.612-24.713,4.574l-.426-.4c.852-.252.873-.873.768-1.793a28.046,28.046,0,0,1,.053-3.639c4.028,1.251,7.614-1.709,7.614-1.709h0c4.732-2.1,3.46-11.1,4.364-13.566.678-1.84,1.409-12.682,1.735-18.087h.068l.037-1.814c.047-.783.068-1.241.068-1.241s.463-13.219,1.367-15.895c.841-2.461,1.525-14.859,1.63-16.826v-.258l-.068-1.146c.047-.836.068-1.767.063-2.745,0-4.5-.468-10.158-.526-11.073v-.478c.037-1.919-.205-11.531-8.381-15.164-3.013-1.346-6.635-2.95-10.143-4.511-.9-7.808-2.971-15.574-2.792-23.44,0-1.183.105-2.366.221-3.544,0,.342-.037.689-.042,1.052v2.292c.31-9.838,4.028-19.728,3.681-29.355-.032.941-.1,1.888-.189,2.834a30.562,30.562,0,0,0-1.009-9.669,5.722,5.722,0,0,0-1.651-3,6.8,6.8,0,0,0-2.881-1.141A57.951,57.951,0,0,0,573.4,62.81a11.686,11.686,0,0,0-1.7-3.307c-5.332-7.319-13.229-14.2-22.567-15.774-4.685-.789-10.074-.131-13.261,3.218a9.943,9.943,0,0,0-.936.946c-1.714,2.045-2.45,4.732-4.206,6.772-.116.137-.247.263-.373.394-3.439,3.076-8.8,3.717-12.619,6.478a15.144,15.144,0,0,0-1.888,1.646,32.006,32.006,0,0,0-4.122,5.011c-1.719,2.419-3.486,4.937-4.033,7.824-1.1,5.784,2.839,11.268,3.57,17.088,1.63,13.024-12.782,24.581-10.053,37.432a17.14,17.14,0,0,0,4.638,8.323c-5.621,5.09-10.406,10.027-10.406,10.027v.294h-.889l.089,1.052h-.089l.489,5.7-.489,8.308v.783h.032c.163,3.044.81,13.991,1.577,16.3.9,2.676,1.362,15.895,1.362,15.895s1,18.682,1.914,21.153-.384,11.447,4.364,13.566h0a9.99,9.99,0,0,0,4.769,1.977c-.242,1.967-.089,3.391.694,3.838a2.293,2.293,0,0,0,1.1.315,11.713,11.713,0,0,0-.857,1.5,22.273,22.273,0,0,1-5.51-1.3c-5.1-2.1-22.026-6.835-26.942-3.507s-16.747,6.346-11.284,19.744,8.008,13.734,8.008,13.734a19.453,19.453,0,0,1,4.369,4.39c1.64,2.466,16.925,8.108,20.748,8.108a37.423,37.423,0,0,1,4.864.242s-4.148,3.639-3.6,5.752-1.262,19.034-1.262,19.034,4.206,4.238,6-1.32l.063.084c.336.457,2.156,2.524,5.579-.084A31.273,31.273,0,0,1,515,301.633l16.573-2.345a46.9,46.9,0,0,1,5.19-.037c2.629.216,5.211-1.341,6.835-2.545,3.434,1.3,7.293,2.729,9.128,3.249,3.723,1.052,20.832,5.642,24.833,4.206a5.557,5.557,0,0,0,2.156-1.535l3.817.121-1.788.358s3.481.058,8.213.121l-.2.116,5.936-.053c8.686.079,18.445.105,19.728-.184,2.009-.447,12.446-.131,15.522,0h.857s11.468-2.287,6.735-13.923c-3.639-8.939-14.822-11.536-19.786-12.251,1.4-.279,2.6-.494,3.4-.62,3.465-.526,10.2-3.681,10.742-4.758s6.189-4.206,7.645-5.989S646.159,251.145,642.7,241.8ZM547.719,267.95l-.563.184-.379.126-.726.715c-.578-.389-1.2-.8-1.846-1.22C545.347,267.824,546.52,267.892,547.719,267.95Zm50.114,14.817Z" transform="translate(-266.779 -43.42)"/><path class="j" d="M686.65,306.517s8.045,21.032,12.619,18.929,3.334-11.042,4.206-13.492,1.84-21.032,1.84-21.032.442-13.145,1.315-15.806c.81-2.445,1.467-14.775,1.577-16.715v-.258L707.34,242.9l-4.911-1.225-11.389,4.206-1.577,9.007-.615,3.518-.263,1.5Z" transform="translate(-372.186 -137.427)"/><path class="e" d="M691.69,358.3s7.677,6.283,9.99,6.835,3.733,5.453,3.733,5.453" transform="translate(-374.576 -192.733)"/><path class="j" d="M547.558,308.267S539.513,329.3,534.939,327.2s-3.333-11.042-4.206-13.492-1.84-21.032-1.84-21.032-.442-13.145-1.315-15.805c-.81-2.445-1.467-14.775-1.577-16.715v-.258l.873-15.248,4.911-1.225,11.389,4.206,1.578,9.007.615,3.518.263,1.5Z" transform="translate(-296.005 -138.257)"/><rect class="k" width="17.956" height="27.988" transform="translate(285.982 57.458)"/><rect class="e" width="17.956" height="27.988" transform="translate(285.982 57.458)"/><path class="l" d="M557.063,405.081s-6.136,6.746-3.859,7.971,17,24.187,17,24.187,48.373,5.957,57.5-2.981,8.939-24.907,8.939-24.907-7.33,1.577-8.129.72-5.19-4.99-5.19-4.99S561.269,401.316,557.063,405.081Z" transform="translate(-308.665 -214.123)"/><path class="m" d="M557.063,405.081s-6.136,6.746-3.859,7.971,17,24.187,17,24.187,48.373,5.957,57.5-2.981,8.939-24.907,8.939-24.907-7.33,1.577-8.129.72-5.19-4.99-5.19-4.99S561.269,401.316,557.063,405.081Z" transform="translate(-308.665 -214.123)"/><path class="j" d="M632.273,200.775,616.5,213.394l-4.769.347-1.751.126-29.408,2.156-30.5-2.229-4.538-.331-5.784-.421L527.66,201.475a207.088,207.088,0,0,1,16.058-15.359c2.955-2.445,5.747-4.422,7.782-5.2l.347-.121a8.655,8.655,0,0,0,3.334-2.324c5.921-6.1,11.394-21.169,11.394-21.169s26.116-13.492,22.962,4.206,11.741,13.324,11.741,13.324l4.911,2.24,1.94.889,4.948,2.266,11.163,5.121C633,189.381,632.273,200.775,632.273,200.775Z" transform="translate(-296.792 -95.086)"/><circle class="e" cx="23.487" cy="23.487" r="23.487" transform="translate(259.066 29.653)"/><path class="e" d="M631.522,243.1H526v-.258l.873-15.248a207.093,207.093,0,0,1,16.058-15.359l66.251-2.629,3.081-3.249,11.163,5.121c8.765,4.028,8.061,15.422,8.061,15.422S632.684,240.106,631.522,243.1Z" transform="translate(-296.005 -120.683)"/><path class="n" d="M631.522,242.1H526v-.258l.873-15.248a207.1,207.1,0,0,1,16.058-15.359l66.251-2.629,3.081-3.249,11.163,5.121c8.765,4.028,8.061,15.422,8.061,15.422S632.684,239.106,631.522,242.1Z" transform="translate(-296.005 -120.209)"/><path class="e" d="M587.862,189.777s16.647,21.211,38.82-.436,2.456,48.284,2.456,48.284L581.29,243.3Z" transform="translate(-322.224 -110.641)"/><path class="n" d="M587.862,191.777s16.647,21.211,38.82-.436,2.456,48.284,2.456,48.284L581.29,245.3Z" transform="translate(-322.224 -111.589)"/><path class="e" d="M619.425,202.218l1.761,26.863,1.888,8.939,1.441,6.835s3.681,52.58,2.629,55.209.526,4.732.747,6.131-.221,4.911-.047,6.488,0,2.277-4.028,1.714-9.643-1.541-9.643-1.541-14.2,1.052-19.1-.7-14.2-1.756-14.2-1.756-14.023.352-18.576-.174-7.014,5.61-9.99,3.854,3.5-18.75,5.605-23.661-2.8-17.351-2.8-17.351l6.31-35,1.4-7.934V205.188l.347-.121a8.655,8.655,0,0,0,3.334-2.324l1.577,25.1,49.425,1.756V201.35" transform="translate(-308.115 -118.307)"/><path class="n" d="M619.425,200.218l1.761,26.863,1.888,8.939,1.441,6.835s3.681,52.58,2.629,55.209.526,4.732.747,6.131-.221,4.911-.047,6.488,0,2.277-4.028,1.714-9.643-1.541-9.643-1.541-14.2,1.052-19.1-.7-14.2-1.756-14.2-1.756-14.023.352-18.576-.173-7.014,5.61-9.99,3.854,3.5-18.75,5.605-23.661-2.8-17.351-2.8-17.351l6.31-35,1.4-7.934V203.188l.347-.121a8.655,8.655,0,0,0,3.334-2.324l1.577,25.1,49.425,1.756V199.35" transform="translate(-308.115 -117.359)"/><path class="e" d="M618.476,72.035a5.793,5.793,0,0,0-1.577-2.976,6.456,6.456,0,0,0-2.776-1.136,54.851,54.851,0,0,0-7.3-1.4,11.682,11.682,0,0,0-1.577-3.276c-5.153-7.277-12.777-14.139-21.747-15.69-4.7-.815-10.137-.084-13.145,3.617-1.651,2.035-2.361,4.732-4.028,6.73-3.213,3.88-9.012,4.359-13.061,7.361a24.2,24.2,0,0,0-5.258,6.083c-1.656,2.4-3.36,4.906-3.886,7.777-1.052,5.736,2.739,11.2,3.439,16.994,1.577,12.95-12.3,24.439-9.68,37.216,1.53,7.451,8.413,12.7,15.532,15.359,2.508.941,5.374,1.877,6.546,4.285.526,1.052.615,2.266,1.109,3.328,1.661,3.544,7.125,3.681,10.059,1.1s3.859-6.757,4.206-10.653c1.409-17.015-5.405-33.825-4.611-50.882.237-5.158,1.688-11.01,6.31-13.345,6.22-3.155,13.7,2.1,20.548,1.1a40.765,40.765,0,0,1,1.966,24.876c-1.088,4.538-2.971,8.939-3.107,13.618-.205,7.125,3.638,13.634,6.961,19.933a10.6,10.6,0,0,1,1.4,3.844,9.264,9.264,0,0,1-.752,4.022c-1.877,5.053-5.116,9.743-5.484,15.122a2.445,2.445,0,0,0,.394,1.8,2.261,2.261,0,0,0,1.357.61c5.679.973,10.59-4.059,13.36-9.112a42.716,42.716,0,0,0,5.268-18.151c.573-10.705-3.265-21.237-3.029-31.953C616.194,96.054,621.7,83.787,618.476,72.035Z" transform="translate(-301.482 -45.237)"/><path class="k" d="M619.476,71.035a5.794,5.794,0,0,0-1.577-2.976,6.457,6.457,0,0,0-2.776-1.136,54.853,54.853,0,0,0-7.3-1.4,11.684,11.684,0,0,0-1.577-3.276c-5.153-7.277-12.777-14.139-21.747-15.69-4.7-.815-10.137-.084-13.145,3.617-1.651,2.035-2.361,4.732-4.028,6.73-3.213,3.88-9.012,4.359-13.061,7.361a24.2,24.2,0,0,0-5.258,6.083c-1.656,2.4-3.36,4.906-3.886,7.777-1.052,5.736,2.739,11.2,3.439,16.994,1.577,12.95-12.3,24.439-9.68,37.216,1.53,7.451,8.413,12.7,15.532,15.359,2.508.941,5.374,1.877,6.546,4.285.526,1.052.615,2.266,1.109,3.328,1.661,3.544,7.125,3.681,10.059,1.1s3.859-6.757,4.206-10.653c1.409-17.015-5.405-33.825-4.611-50.881.237-5.158,1.688-11.01,6.31-13.345,6.22-3.155,13.7,2.1,20.548,1.1a40.766,40.766,0,0,1,1.966,24.876c-1.088,4.538-2.971,8.939-3.107,13.618-.205,7.125,3.639,13.634,6.962,19.933a10.606,10.606,0,0,1,1.4,3.844,9.263,9.263,0,0,1-.752,4.022c-1.877,5.053-5.116,9.743-5.484,15.122a2.445,2.445,0,0,0,.394,1.8,2.261,2.261,0,0,0,1.357.61c5.679.973,10.59-4.059,13.36-9.112a42.714,42.714,0,0,0,5.268-18.151c.573-10.705-3.265-21.237-3.029-31.953C617.194,95.054,622.7,82.787,619.476,71.035Z" transform="translate(-301.957 -44.763)"/><path class="o" d="M581.79,479.381l20.858.668-2.992-15.469-15.979,1.52Z" transform="translate(-275.886 -220.301)"/><path class="l" d="M705.88,437.026c-1.4,1.751-6.835,4.906-7.361,5.957s-7.009,4.206-10.342,4.732-13.844,2.808-15.774,4.033c-1.383.883-12.482,3.681-19.775,5.232a56.128,56.128,0,0,1-5.989,1.078c-3.155.173-37.679-11.568-37.679-11.568l6.657-6.835.368-.126c1.882-.636,10.579-3.575,15.406-4.974,5.437-1.577,11.746-8.06,11.746-8.06s9.286-3.155,10.516-3.507-3.155-12.267-3.155-12.267,20.154-2.8,28.041-5.169,26.116-1.493,29.445,7.8S707.305,435.275,705.88,437.026Z" transform="translate(-335.345 -214.61)"/><path class="n" d="M578.474,506s-4.028,4.206-8.06,3.859-18.135,1.052-18.135,1.052a28.273,28.273,0,0,0-7.1,4.117c-3.3,2.6-5.048.526-5.374.084l-.058-.084c-1.756,5.526-5.784,1.315-5.784,1.315s1.751-16.826,1.215-18.929,3.465-5.715,3.465-5.715l4.732-1.2,11.988-3.071,17.178,5.957Z" transform="translate(-299.78 -253.962)"/><path class="e" d="M543.351,493.26,539.8,517.878l-.058-.084c-1.756,5.526-5.784,1.315-5.784,1.315s1.751-16.826,1.215-18.929,3.465-5.715,3.465-5.715Z" transform="translate(-299.78 -256.731)"/><path class="e" d="M599,360.08s9.286,3.155,17.351,0" transform="translate(-330.622 -193.577)"/><path class="e" d="M659.29,371.42s3.854,1.924,6.835,0" transform="translate(-359.212 -198.955)"/><path class="e" d="M659.29,379.3s6.483.868,7.713-.883" transform="translate(-359.212 -202.274)"/><path class="e" d="M655.29,395.431s12.177-1.577,15.2-3.681" transform="translate(-357.315 -208.595)"/><path class="e" d="M584.62,391.75s6.835,3.854,11.92,3.681" transform="translate(-323.803 -208.595)"/><path class="e" d="M652.618,488.631a56.123,56.123,0,0,1-5.989,1.078c-3.155.174-37.679-11.568-37.679-11.568l6.657-6.835.368-.126c1.052.741,1.914,1.378,2.529,1.861,2.9,2.282,5.694-.7,6.746-.7s10.164,7.535,10.164,7.535,8.413,1.93,9.817,3.681,6.31,1.4,7.182,2.629A4.691,4.691,0,0,1,652.618,488.631Z" transform="translate(-335.34 -246.261)"/><path class="l" d="M522.285,412.138s-8.507.489-13.413-1.577-21.205-6.835-25.938-3.486-16.126,6.31-10.868,19.633,7.713,13.671,7.713,13.671a18.982,18.982,0,0,1,4.206,4.364c1.577,2.455,16.3,8.06,19.98,8.06s10.164,0,19.276,6.31,17.351,7.014,17.351,7.014,11.568,4.732,15.169,5.784,20.059,5.605,23.919,4.206,6.31-10.169,6.31-10.169,1.751-7.887.873-9.112-5.784-.878-7.182-2.629-9.817-3.681-9.817-3.681-9.091-7.54-10.143-7.54-3.849,2.976-6.746.7a153.9,153.9,0,0,0-18.145-11.568C528.174,428.611,522.285,412.138,522.285,412.138Z" transform="translate(-269.787 -215.312)"/><path class="e" d="M536.27,427.237a10.043,10.043,0,0,1,8.618,2.277c4.206,3.507,18.361,10.548,18.361,10.548" transform="translate(-300.875 -225.327)"/><path class="e" d="M716.217,427s-18.755,2.839-22.257,6.693" transform="translate(-375.652 -225.311)"/><path class="n" d="M733.82,513.71h-.825c-2.966-.105-13.014-.421-14.948,0-2.277.526-32.426,0-32.426,0l5.894-1.225s-2.187-7.666-.8-8.3c0,0-7.887-5.195-1.94-8.7a18.448,18.448,0,0,1,12.356-2.03l14.927-5.058,2.866-.973s16.826.878,21.379,12.446S733.82,513.71,733.82,513.71Z" transform="translate(-371.697 -253.962)"/><path class="e" d="M761.271,513.734h-.826c4.9-4.038,15.969-16.331-16.936-25.291l2.866-.973s16.826.878,21.379,12.446S761.271,513.734,761.271,513.734Z" transform="translate(-399.149 -253.986)"/><circle class="l" cx="0.92" cy="0.92" r="0.92" transform="translate(330.27 244.279)"/><circle class="l" cx="0.92" cy="0.92" r="0.92" transform="translate(324.922 245.798)"/><g class="p" transform="translate(236.737 33.071)"><path d="M631.741,125.679a40.8,40.8,0,0,0-3.018-16.9c-6.835,1.02-14.323-4.254-20.548-1.1-4.606,2.335-6.052,8.187-6.31,13.345-.063,1.362-.074,2.724-.047,4.085,0-.484,0-.973.047-1.456.242-5.158,1.688-11.01,6.31-13.345,6.225-3.155,13.7,2.1,20.548,1.1A40.685,40.685,0,0,1,631.741,125.679Z" transform="translate(-568.689 -106.477)"/><path d="M554.682,125.669a17.523,17.523,0,0,0-.068-3.439c-.557-4.627-3.086-9.049-3.544-13.56-.589,5.442,2.876,10.668,3.544,16.189A3.286,3.286,0,0,1,554.682,125.669Z" transform="translate(-544.598 -107.429)"/><path d="M576.61,216.794c-.326,3.9-1.246,8.071-4.206,10.658s-8.413,2.445-10.058-1.1c-.526-1.052-.6-2.277-1.115-3.328-1.167-2.408-4.038-3.344-6.546-4.285-7.125-2.666-14-7.887-15.527-15.359a16.122,16.122,0,0,1-.279-2.051,16.572,16.572,0,0,0,.279,4.68c1.53,7.451,8.413,12.693,15.527,15.359,2.508.941,5.379,1.877,6.546,4.285.526,1.052.615,2.266,1.115,3.328,1.656,3.544,7.119,3.681,10.058,1.1s3.854-6.757,4.206-10.658a60.066,60.066,0,0,0,.163-6.173C576.773,214.443,576.705,215.621,576.61,216.794Z" transform="translate(-538.823 -151.369)"/><path d="M687.93,133.22V135.5c.294-9.78,3.88-19.612,3.528-29.187C691.185,115.164,688.13,124.219,687.93,133.22Z" transform="translate(-609.53 -106.31)"/><path d="M659.032,211.206a6.781,6.781,0,0,0,.121-1.9,10.516,10.516,0,0,0-1.4-3.844c-3.039-5.784-6.5-11.7-6.914-18.124,0,.273-.037.526-.042.82-.21,7.119,3.633,13.634,6.956,19.933A12.624,12.624,0,0,1,659.032,211.206Z" transform="translate(-591.915 -144.735)"/><path d="M675.23,217.312a42.783,42.783,0,0,1-5.305,18.151c-2.776,5.053-7.682,10.085-13.366,9.112a2.235,2.235,0,0,1-1.357-.615,1.316,1.316,0,0,1-.247-.41c-.063.41-.116.826-.147,1.246a2.424,2.424,0,0,0,.394,1.793,2.235,2.235,0,0,0,1.357.615c5.684.973,10.589-4.059,13.366-9.112a42.784,42.784,0,0,0,5.305-18.151c.063-1.23.068-2.455.032-3.681C675.251,216.612,675.251,216.959,675.23,217.312Z" transform="translate(-593.806 -158.448)"/></g><path class="q" d="M695.31,513.192s13.308,5.584,22.083-6.772" transform="translate(-376.292 -262.972)"/><path class="q" d="M700.29,534.965s10.868-7.067,24.713-.231" transform="translate(-378.654 -274.985)"/><path class="q" d="M561.93,529.943s4.564-10.3,16.752-2.445" transform="translate(-313.043 -271.568)"/><path class="e" d="M533.79,235.972l9.307-8.413s36.086-2.366,37.579,9.9c0,0,12.793-14.544,39.7-11.3l11.384,9.065-31.464,13.807-30.575,10.605-22.52-10.08Z" transform="translate(-299.699 -129.847)"/><path class="d" d="M533.79,236.972l9.307-8.413s36.086-2.366,37.579,9.9c0,0,12.793-14.544,39.7-11.3l11.384,9.065-31.464,13.807-30.575,10.605-22.52-10.08Z" transform="translate(-299.699 -130.321)"/><path class="e" d="M437.38,204.83l4.117,49.252,43.641,2.193-1.893-49.041-.037-.826Z" transform="translate(-207.406 -97.127)"/><path class="b" d="M437.38,202.83l4.117,49.251,43.641,2.193-1.893-49.041-.037-.825Z" transform="translate(-207.406 -96.179)"/><path class="e" d="M594.729,202.83l-45.019,6.751v49.472L593.7,252.7Z" transform="translate(-260.673 -96.179)"/><path class="b" d="M594.729,200.83l-45.019,6.751v49.472L593.7,250.7Z" transform="translate(-260.673 -95.23)"/><path class="f" d="M593.208,223.79l-24.318,2.7.531,8.287,23.771-2.6Z" transform="translate(-269.769 -106.118)"/><path class="j" d="M537.337,350.522l2.477,6.662s3.68,3.155,7.708,1.577,7.54-2.361,9.291-3.9,4.206-9.249,4.206-9.249,2.455-8.413,4.906-10.516,8.939-31.08,0-28.246-15.774,29.124-15.774,29.124a6.234,6.234,0,0,1-3.854,2.1c-2.277.179-6.835-.352-7.713,1.577S534.708,346.668,537.337,350.522Z" transform="translate(-300.88 -168.245)"/><path class="e" d="M626.383,256.112a15.143,15.143,0,0,1-13.2-3.292l1.9,49.036a13.382,13.382,0,0,0,11.3,3.733Z" transform="translate(-337.346 -142.714)"/><path class="b" d="M626.383,254.112a15.143,15.143,0,0,1-13.2-3.291l1.9,49.036a13.382,13.382,0,0,0,11.3,3.733Z" transform="translate(-337.346 -141.766)"/><path class="e" d="M626.383,254.112a15.143,15.143,0,0,1-13.2-3.291l1.9,49.036a13.382,13.382,0,0,0,11.3,3.733Z" transform="translate(-337.346 -141.766)"/><path class="e" d="M640.29,242.162s18.314-5.6,23.088-4.811" transform="translate(-350.202 -135.343)"/><path class="e" d="M582.646,239.01S564.9,234.8,561.93,236" transform="translate(-313.043 -134.636)"/><path class="e" d="M662.25,245.256s12.246-4.49,16.673-2.356" transform="translate(-360.615 -137.738)"/><path class="e" d="M650.52,453.822a40.259,40.259,0,0,1,6.036-3.749,98.468,98.468,0,0,0,8.939-5.463" transform="translate(-355.053 -233.661)"/><path class="e" d="M549.553,360.08s-7.682,6.283-9.99,6.835-3.733,5.453-3.733,5.453" transform="translate(-300.667 -193.577)"/><path class="j" d="M685.429,348.756l-2.45,6.678s-3.681,3.155-7.714,1.577-7.535-2.361-9.291-3.9-4.206-9.249-4.206-9.249-2.45-8.413-4.906-10.516-8.939-31.08,0-28.246,15.774,29.124,15.774,29.124a6.234,6.234,0,0,0,3.854,2.1c2.277.179,6.835-.352,7.713,1.577S688.058,344.918,685.429,348.756Z" transform="translate(-355.89 -167.415)"/><path class="e" d="M707.15,364.94s5.021,3.228,5,7.088" transform="translate(-381.907 -195.882)"/><circle class="j" cx="23.487" cy="23.487" r="23.487" transform="translate(259.15 28.502)"/><path class="k" d="M587.581,107.968c2.85-.447,5.347-2.1,8.071-3.055,6.094-2.14,12.835-.673,19,1.257a24.644,24.644,0,0,0,7.251,1.577c2.482,0,5.116-1.015,6.383-3.155A7.133,7.133,0,0,0,628.246,98a18.558,18.558,0,0,0-4.291-5.295c-5.468-5.163-12.251-9.99-19.754-9.464a27.187,27.187,0,0,0-8.681,2.487,95.694,95.694,0,0,0-10.19,5.132c-2.529,1.467-7.214,3.428-8.67,6.11C573.348,103.015,582.428,108.777,587.581,107.968Z" transform="translate(-319.692 -62.283)"/><path class="e" d="M628.286,115.924c-1.267,2.14-3.9,3.155-6.383,3.155a24.663,24.663,0,0,1-7.256-1.546c-6.168-1.93-12.9-3.4-19-1.257-2.718.952-5.221,2.629-8.071,3.05-4.154.652-10.842-2.966-11.568-7.566-.815,5.316,6.941,9.869,11.568,9.144,2.85-.447,5.353-2.1,8.071-3.05,6.1-2.145,12.835-.673,19,1.257a23.665,23.665,0,0,0,7.256,1.546c2.487-.032,5.116-1.01,6.383-3.155a6.157,6.157,0,0,0,.736-3.844,5.67,5.67,0,0,1-.736,2.266Z" transform="translate(-319.69 -75.823)"/><path class="b" d="M1030.262,661.63s3.118,4.075-1.441,10.232-8.313,11.352-6.8,15.19c0,0,6.878-11.431,12.472-11.594S1036.408,668.5,1030.262,661.63Z" transform="translate(-531.058 -336.573)"/><path class="e" d="M1030.422,661.63a5.042,5.042,0,0,1,.636,1.278c5.458,6.415,8.37,12.4,3.118,12.551-4.89.142-10.753,8.886-12.156,11.089a5.143,5.143,0,0,0,.163.526s6.878-11.431,12.472-11.594S1036.569,668.5,1030.422,661.63Z" transform="translate(-531.219 -336.573)"/><path class="r" d="M1048.35,670.683c0,1.435-.163,2.6-.358,2.6s-.363-1.162-.363-2.6.2-.757.4-.757S1048.35,669.247,1048.35,670.683Z" transform="translate(-543.363 -340.431)"/><path class="r" d="M1050.574,673.858c-1.257.684-2.356,1.1-2.45.925s.847-.873,2.1-1.577.762-.189.857,0S1051.836,673.169,1050.574,673.858Z" transform="translate(-543.594 -341.891)"/><path class="b" d="M1000.353,661.63s-3.118,4.075,1.441,10.232,8.313,11.352,6.793,15.19c0,0-6.872-11.431-12.472-11.594S994.222,668.5,1000.353,661.63Z" transform="translate(-517.628 -336.573)"/><path class="e" d="M1000.353,661.63a5.047,5.047,0,0,0-.636,1.278c-5.458,6.415-8.371,12.4-3.118,12.551,4.885.142,10.753,8.886,12.156,11.089a4.056,4.056,0,0,1-.168.526s-6.872-11.431-12.472-11.594S994.222,668.5,1000.353,661.63Z" transform="translate(-517.628 -336.573)"/><path class="r" d="M995.64,670.683c0,1.435.158,2.6.358,2.6s.363-1.162.363-2.6-.205-.757-.4-.757S995.64,669.247,995.64,670.683Z" transform="translate(-518.709 -340.431)"/><path class="r" d="M991.17,673.858c1.257.684,2.356,1.1,2.45.925s-.847-.873-2.1-1.577-.763-.189-.857,0S989.908,673.169,991.17,673.858Z" transform="translate(-516.227 -341.891)"/><ellipse class="a" cx="32.599" cy="5" rx="32.599" ry="5" transform="translate(458.365 371.669)"/><path class="s" d="M1023.966,697.813l-.158,1.272-.221,1.8-.09.752-.221,1.8-.095.752-.215,1.793-2.5,20.454c-.221,1.824-3.2,3.249-6.8,3.249H1000.7c-3.6,0-6.578-1.425-6.8-3.249l-2.5-20.454-.221-1.793-.089-.752-.221-1.8-.095-.752-.216-1.8-.158-1.272c-.121-1.052,1.488-1.9,3.528-1.9h26.511C1022.478,695.91,1024.092,696.778,1023.966,697.813Z" transform="translate(-516.224 -352.828)"/><path class="t" d="M935.376,658.53l-.216,1.8h-32.81l-.221-1.8Z" transform="translate(-427.792 -312.272)"/><path class="t" d="M935.346,663.38l-.216,1.8H902.941l-.221-1.8Z" transform="translate(-428.071 -314.572)"/><path class="t" d="M935.32,668.23l-.221,1.8H903.536l-.216-1.8Z" transform="translate(-428.356 -316.872)"/></g></svg>