<svg xmlns="http://www.w3.org/2000/svg" width="32" height="32" viewBox="0 0 32 32"><defs><style>.a{fill:#3cb46e;}.b{fill:#fff;fill-rule:evenodd;}</style></defs><g transform="translate(-530 -2649)"><circle class="a" cx="16" cy="16" r="16" transform="translate(530 2649)"/><path class="b" d="M9.65,19.82H3a1,1,0,0,1-1-1V13.25A9.55,9.55,0,0,1,3.53,7.52a15,15,0,0,1,4.34-3.2,1,1,0,0,1,1.36.37h0l.93,1.73A1,1,0,0,1,9.8,7.78,10,10,0,0,0,7.48,9.41a4.21,4.21,0,0,0-1,2.48H9.65a1,1,0,0,1,1,1v5.93A1,1,0,0,1,9.65,19.82Zm11.35,0H14.35a1,1,0,0,1-1-1V13.25a9.55,9.55,0,0,1,1.53-5.73,14.84,14.84,0,0,1,4.34-3.2,1,1,0,0,1,1.36.37h0l.94,1.73a1,1,0,0,1-.38,1.34,9.76,9.76,0,0,0-2.32,1.63,4.28,4.28,0,0,0-1,2.48H21a1,1,0,0,1,1,1V18.8a1,1,0,0,1-1,1.02Z" transform="translate(534.014 2651.811)"/></g></svg>