<svg xmlns="http://www.w3.org/2000/svg" width="32.348" height="31" viewBox="0 0 32.348 31"><defs><style>.a{fill:#fff;}</style></defs><g transform="translate(0)"><path class="a" d="M8.75,17.612v6.251a1.01,1.01,0,0,0,1.825.6l3.657-4.976Z" transform="translate(3.043 6.126)"/><path class="a" d="M31.923.187A1.011,1.011,0,0,0,30.869.115L.543,15.951A1.011,1.011,0,0,0,.683,17.8l8.431,2.882L27.068,5.335,13.175,22.073,27.3,26.9a1.034,1.034,0,0,0,.326.054,1.01,1.01,0,0,0,1-.861L32.337,1.161a1.013,1.013,0,0,0-.414-.973Z" transform="translate(0)"/></g></svg>