<svg xmlns="http://www.w3.org/2000/svg" width="46.913" height="48.531" viewBox="0 0 46.913 48.531"><defs><style>.a{fill:#3cb46e;}</style></defs><g transform="translate(-8.51)"><path class="a" d="M53.039,210.276a6.754,6.754,0,0,0-3.924-1.67V207.18H47.689v1.462a7.54,7.54,0,0,0-4.917,2.791l-8.733-4.082a2.147,2.147,0,0,0-1.371-1.537v-2.928H31.242v2.928a2.147,2.147,0,0,0-1.371,1.537l-8.6,4.021a7.094,7.094,0,0,0-4.951-2.793v-1.4H14.891v1.4a7.075,7.075,0,0,0-4.042,1.793l.956,1.058a5.667,5.667,0,1,1,7.42,8.563v-3.324l-2.251-.565a2.519,2.519,0,1,0-2.6,0l-2.279.566v3.416a5.663,5.663,0,0,1-1.214-7.58l-1.187-.79a7.1,7.1,0,1,0,12.319.885l8.054-3.764a2.15,2.15,0,0,0,1.175,1.013v8.037a7.1,7.1,0,0,0-6.381,7.058A7.191,7.191,0,0,0,26.933,230a6.982,6.982,0,0,0,10.042,0,7.191,7.191,0,0,0,2.073-5.059,7.1,7.1,0,0,0-6.381-7.058v-8.037a2.15,2.15,0,0,0,1.175-1.013L42,212.646a6.759,6.759,0,0,0-.55,4.423l1.4-.287a5.667,5.667,0,1,1,9.174,3.2v-3.318l-2.251-.565a2.519,2.519,0,1,0-2.6,0l-2.279.566v3.4A5.548,5.548,0,0,1,43.248,218l-1.3.6a7.117,7.117,0,0,0,6.448,4.133C54.83,222.731,57.892,214.482,53.039,210.276Zm-37.363,2.576a1.093,1.093,0,1,1-1.093,1.093A1.095,1.095,0,0,1,15.676,212.852Zm-2.156,8.054v-3.124l2.155-.535,2.124.533v3.081a5.656,5.656,0,0,1-4.278.044ZM29.872,230.3v-3.212l2.155-.535,2.124.533v3.169a5.571,5.571,0,0,1-4.279.045Zm2.156-5.956a1.093,1.093,0,1,1,1.093-1.093A1.095,1.095,0,0,1,32.027,224.344Zm5.6.6a5.791,5.791,0,0,1-2.047,4.429v-3.4l-2.251-.565a2.519,2.519,0,1,0-2.6,0l-2.279.566v3.49a5.79,5.79,0,0,1-2.159-4.521,5.668,5.668,0,1,1,11.336,0Zm-5.668-16.4a.713.713,0,1,1,.713-.713A.714.714,0,0,1,31.955,208.543Zm16.518,4.309a1.093,1.093,0,1,1-1.093,1.093A1.095,1.095,0,0,1,48.473,212.852Zm-2.155,8.026v-3.1l2.155-.535,2.124.533v3.08A5.662,5.662,0,0,1,46.317,220.879Z" transform="translate(0 -183.6)"/><path class="a" d="M135.139,67.338h1.426v1.426h-1.426Z" transform="translate(-114.592 -60.937)"/><path class="a" d="M105.472,67.338h1.394v1.426h-1.394Z" transform="translate(-87.745 -60.937)"/><path class="a" d="M75.635,67.891h1.426v1.426H75.635Z" transform="translate(-60.744 -61.437)"/><path class="a" d="M75.635,97.891h1.426v1.458H75.635Z" transform="translate(-60.744 -88.585)"/><path class="a" d="M75.635,127.891h1.426v1.426H75.635Z" transform="translate(-60.744 -115.734)"/><path class="a" d="M75.635,157.892h1.426v1.426H75.635Z" transform="translate(-60.744 -142.883)"/><path class="a" d="M75.635,187.891h1.426v1.426H75.635Z" transform="translate(-60.744 -170.03)"/><path class="a" d="M75.635,217.892h1.426v1.458H75.635Z" transform="translate(-60.744 -197.179)"/><path class="a" d="M172.981,14.151v3.757h1.426V14.151a7.106,7.106,0,0,0,6.343-6.324h1.6V6.4h-1.592a7.075,7.075,0,0,0-2.528-4.765l-.911,1.1a5.664,5.664,0,0,1,0,8.717V8.126l-2.251-.565a2.519,2.519,0,1,0-2.6,0l-2.279.566V11.54A5.667,5.667,0,0,1,176.2,2.01l.632-1.278A7.026,7.026,0,0,0,173.694,0a7.1,7.1,0,0,0-7.06,6.4h-1.5V7.827h1.5A7.106,7.106,0,0,0,172.981,14.151Zm.785-9.842A1.093,1.093,0,1,1,172.674,5.4,1.095,1.095,0,0,1,173.767,4.309Zm-2.156,4.93,2.155-.535,2.124.533v3.081a5.656,5.656,0,0,1-4.279.044Z" transform="translate(-141.74 0)"/><path class="a" d="M361.155,67.338h1.426v1.426h-1.426Z" transform="translate(-319.122 -60.937)"/><path class="a" d="M391.155,67.338h1.394v1.426h-1.394Z" transform="translate(-346.271 -60.937)"/><path class="a" d="M420.658,67.891h1.426v1.426h-1.426Z" transform="translate(-372.969 -61.437)"/><path class="a" d="M420.658,97.891h1.426v1.458h-1.426Z" transform="translate(-372.969 -88.585)"/><path class="a" d="M420.658,127.891h1.426v1.426h-1.426Z" transform="translate(-372.969 -115.734)"/><path class="a" d="M420.658,157.892h1.426v1.426h-1.426Z" transform="translate(-372.969 -142.883)"/><path class="a" d="M420.658,187.891h1.426v1.426h-1.426Z" transform="translate(-372.969 -170.03)"/><path class="a" d="M420.658,217.892h1.426v1.458h-1.426Z" transform="translate(-372.969 -197.179)"/></g></svg>