<svg xmlns="http://www.w3.org/2000/svg" width="50.11" height="48.5" viewBox="0 0 50.11 48.5"><defs><style>.a{fill:#3cb46e;}</style></defs><g transform="translate(0 -8.227)"><g transform="translate(6.673 13.079)"><path class="a" d="M89.846,61.524A12.694,12.694,0,1,0,93.564,70.5,12.611,12.611,0,0,0,89.846,61.524ZM72.917,62.546a11.251,11.251,0,0,1,19.047,6.083l-3.94,3.853a2.572,2.572,0,0,0-3.4.815L78.829,71.48c0-.017,0-.033,0-.05a2.576,2.576,0,1,0-4.812,1.277l-3.039,3.15A11.268,11.268,0,0,1,72.917,62.546ZM87.892,74.727a1.13,1.13,0,1,1-1.13-1.13A1.132,1.132,0,0,1,87.892,74.727Zm-10.508-3.3a1.13,1.13,0,1,1-1.13-1.13A1.132,1.132,0,0,1,77.384,71.43Zm11.439,7.024a11.251,11.251,0,0,1-17.051-1.338l3.285-3.405a2.572,2.572,0,0,0,3.337-.851l5.791,1.817c0,.017,0,.033,0,.05a2.576,2.576,0,1,0,4.849-1.211L92.118,70.5A11.175,11.175,0,0,1,88.824,78.453Z" transform="translate(-68.183 -57.806)"/></g><g transform="translate(12.96 16.013)"><path class="a" d="M132.414,90.169l.948,1.091a8.345,8.345,0,0,1,8.2-1.568l.476-1.365A9.794,9.794,0,0,0,132.414,90.169Z" transform="translate(-132.414 -87.783)"/></g><g transform="translate(23.689 17.433)"><path class="a" d="M242.8,102.292l-.752,1.235a8.3,8.3,0,0,1,1.091.794l.943-1.1A9.768,9.768,0,0,0,242.8,102.292Z" transform="translate(-242.046 -102.292)"/></g><g transform="translate(15.718 33.491)"><path class="a" d="M165.97,266.774a8.335,8.335,0,0,1-4.834-.417L160.6,267.7a9.762,9.762,0,0,0,3.636.7,9.861,9.861,0,0,0,2.035-.213Z" transform="translate(-160.598 -266.357)"/></g><g transform="translate(0 8.227)"><g transform="translate(0 0)"><path class="a" d="M37.469,37.387l-1.05,1.05-2.6-2.783A17.563,17.563,0,0,0,36.04,20.462l2.066-2.02A2.575,2.575,0,0,0,41.621,15l4.435-4.337v2.242H47.5V8.227H42.82V9.673h2.186l-4.377,4.28a2.574,2.574,0,0,0-3.552,3.474l-1.583,1.548a17.508,17.508,0,1,0-30.5,16.8L3.772,37.036a2.58,2.58,0,1,0,1.04,1l1.063-1.1q.52.627,1.106,1.215a17.537,17.537,0,0,0,22.22,2.1l2.61,2.79L30.726,44.13l12.642,12.6,6.743-6.743Zm1.858-22.344a1.13,1.13,0,1,1-1.13,1.13A1.132,1.132,0,0,1,39.327,15.043Zm-36.75,25.4a1.13,1.13,0,1,1,1.13-1.13A1.132,1.132,0,0,1,2.576,40.447ZM8,37.131a16.062,16.062,0,1,1,22.715,0A16.08,16.08,0,0,1,8,37.131Zm22.366,2.256a17.612,17.612,0,0,0,2.567-2.557l2.46,2.629-2.562,2.562Zm13,15.3L32.772,44.128l4.7-4.7L48.064,49.986Z" transform="translate(0 -8.227)"/></g></g><g transform="translate(35.401 41.528)"><path class="a" d="M363.778,348.478l-2.069,2.069,1.022,1.022,1.046-1.046,3.99,3.99,1.022-1.022Z" transform="translate(-361.709 -348.478)"/></g><g transform="translate(42.699 47.777)"><g transform="translate(0 0)"><rect class="a" width="1.446" height="1.515" transform="translate(0 1.022) rotate(-45)"/></g></g><g transform="translate(7.832 44.013)"><rect class="a" width="1.446" height="1.575"/></g><g transform="translate(7.832 52.841)"><g transform="translate(0 0)"><rect class="a" width="1.446" height="1.575"/></g></g><g transform="translate(19.739 47.051)"><g transform="translate(0 0)"><rect class="a" width="1.446" height="1.575"/></g></g><g transform="translate(40.457 34.049)"><rect class="a" width="1.446" height="1.575"/></g><g transform="translate(42.097 21.504)"><g transform="translate(0 0)"><rect class="a" width="1.446" height="1.575"/></g></g><g transform="translate(46.888 28.147)"><rect class="a" width="1.446" height="1.575"/></g></g></svg>