<svg xmlns="http://www.w3.org/2000/svg" width="48.726" height="48.732" viewBox="0 0 48.726 48.732"><defs><style>.a{fill:#3cb46e;stroke:#3cb46e;stroke-width:0.1px;}</style></defs><g transform="translate(-0.449 0.101)"><path class="a" d="M45.8,24.3a33.768,33.768,0,0,0,2.385-6.1c1.751-6.324.9-11.62-2.388-14.912S37.207-.859,30.882.892a33.8,33.8,0,0,0-6.1,2.385,32.388,32.388,0,0,0-7.52-2.74C11.576-.707,6.787.267,3.773,3.281A11.846,11.846,0,0,0,.529,11.14,24.018,24.018,0,0,0,2.22,20.749a4.506,4.506,0,0,0,0,7.084A24.019,24.019,0,0,0,.529,37.441,11.848,11.848,0,0,0,3.773,45.3a12.105,12.105,0,0,0,8.851,3.274,19.912,19.912,0,0,0,2.28-.135,29.922,29.922,0,0,0,9.878-3.134,33.779,33.779,0,0,0,6.1,2.383,22.83,22.83,0,0,0,6.061.891,12.12,12.12,0,0,0,8.85-3.279c3.014-3.014,3.988-7.8,2.743-13.485A32.391,32.391,0,0,0,45.8,24.3ZM31.262,2.266c5.808-1.608,10.611-.89,13.523,2.023S48.416,12,46.808,17.812a31.615,31.615,0,0,1-1.838,4.924,46.676,46.676,0,0,0-5.039-7.259,4.508,4.508,0,0,0,.013-5.551l-1.125.875a3.058,3.058,0,0,1,.649,1.895,3.087,3.087,0,1,1-1.513-2.657l.729-1.225a4.507,4.507,0,0,0-5.085.331A46.725,46.725,0,0,0,26.338,4.1,31.649,31.649,0,0,1,31.262,2.266ZM4.781,4.289C8.635.434,15.7.578,23.223,4.1a48.562,48.562,0,0,0-10.557,8.073,49.9,49.9,0,0,0-6.38,7.783,4.553,4.553,0,0,0-1.271-.18,4.5,4.5,0,0,0-1.536.269C1.009,13.314,1.471,7.6,4.781,4.289Zm7.88,42.856a10.821,10.821,0,0,1-7.881-2.852c-3.31-3.31-3.773-9.025-1.3-15.757a4.5,4.5,0,0,0,2.806.086,49.866,49.866,0,0,0,6.382,7.786A48.57,48.57,0,0,0,23.219,44.48,25.472,25.472,0,0,1,12.662,47.145ZM24.779,43.7a46.557,46.557,0,0,1-11.105-8.3A48.53,48.53,0,0,1,7.583,28a4.512,4.512,0,0,0,1.946-3.71c0-.134-.006-.269-.017-.4l-1.42.126c.008.091.012.184.012.276a3.086,3.086,0,1,1-.326-1.383l1.274-.639a4.519,4.519,0,0,0-1.466-1.693,48.555,48.555,0,0,1,6.088-7.394A46.545,46.545,0,0,1,24.783,4.876a44.707,44.707,0,0,1,7.843,5.313,4.512,4.512,0,0,0,6.259,6.259A44.718,44.718,0,0,1,44.2,24.291,46.562,46.562,0,0,1,35.893,35.4c-.38.38-.77.757-1.165,1.126a4.509,4.509,0,0,0-5.681-.119l.875,1.125a3.061,3.061,0,0,1,1.894-.649A3.087,3.087,0,1,1,29.159,38.4l-1.225-.729a4.511,4.511,0,0,0-.167,4.3Q26.269,42.922,24.779,43.7Zm20.006.589c-2.912,2.913-7.715,3.631-13.523,2.023a31.641,31.641,0,0,1-4.921-1.837q1.126-.629,2.251-1.349a4.512,4.512,0,0,0,7.067-5.522c.42-.393.836-.8,1.241-1.2a48.575,48.575,0,0,0,8.074-10.557C48.5,33.372,48.64,40.439,44.786,44.293Zm0,0" transform="translate(0 0)"/><path class="a" d="M252.708,265.212h-1.473V261.62a3.578,3.578,0,0,0-2.6-3.431l-.533-.15-.387,1.372.533.15a2.146,2.146,0,0,1,1.558,2.058v3.592h-2.566v-1.948h-1.425v1.948H239.4v1.425h13.306Zm0,0" transform="translate(-216.235 -233.555)"/><path class="a" d="M147.274,121.7l2.971.838.387-1.372-2.912-.821v-1.893a4.989,4.989,0,0,0,2.186-4.125v-2.091a4.99,4.99,0,0,0-9.98,0v2.091a4.989,4.989,0,0,0,2.186,4.125v1.893L137.3,121.7a3.578,3.578,0,0,0-2.6,3.431v3.592h-1.473v1.425h8.649v-1.425h-1.758v-1.948h-1.425v1.948h-2.566v-3.592a2.146,2.146,0,0,1,1.558-2.058l4.876-1.375a3.2,3.2,0,0,0,4.715,0Zm-2.358-13.029a3.568,3.568,0,0,1,3.564,3.564v.794l-1.5-1.982h-5.425A3.57,3.57,0,0,1,144.917,108.672Zm-3.564,5.655v-1.853h4.92l2.09,2.763a3.564,3.564,0,0,1-7.01-.91Zm2.186,6.328v-1.533a4.958,4.958,0,0,0,2.756,0v1.533a1.772,1.772,0,0,1-2.756,0Zm0,0" transform="translate(-120.133 -97.069)"/><path class="a" d="M276.957,276.5l-2.008-.566.387-1.372,2.008.566Zm0,0" transform="translate(-248.409 -248.514)"/><path class="a" d="M312.314,284.973l-.387,1.372-1.372-.387.387-1.372Zm0,0" transform="translate(-280.636 -257.583)"/><path class="a" d="M371.129,126.281h1.425v1.426h-1.425Zm0,0" transform="translate(-335.463 -114.298)"/><path class="a" d="M323.047,413.77h1.425v1.425h-1.425Zm0,0" transform="translate(-291.943 -374.509)"/><path class="a" d="M40.566,248.488h1.426v1.425H40.566Zm0,0" transform="translate(-36.265 -224.91)"/></g></svg>