<svg xmlns="http://www.w3.org/2000/svg" width="31" height="31.005" viewBox="0 0 31 31.005"><defs><style>.a{fill:#fff;}</style></defs><g transform="translate(-0.004)"><g transform="translate(0.004)"><path class="a" d="M28.564,6.918l-.464.147-2.47.22-.7,1.114-.506-.161L22.46,6.466l-.285-.922-.382-.983L20.557,3.453,19.1,3.168l-.034.667,1.428,1.394.7.823-.786.411-.64-.189-.958-.4.033-.773-1.257-.517L17.167,6.4,15.9,6.688,16.025,7.7l1.651.318.285-1.62,1.363.2.634.371h1.017l.7,1.394,1.845,1.871-.135.727-1.487-.189-2.57,1.3-1.85,2.22-.241.983h-.664l-1.238-.57-1.2.57.3,1.268.523-.6.92-.029L15.8,17.051l.762.223.761.855,1.243-.349L19.989,18l1.648.443.823.1,1.4,1.584,2.693,1.584-1.742,3.328-1.839.855-.7,1.9L19.61,29.572,19.327,30.6A15.482,15.482,0,0,0,28.564,6.918Z" transform="translate(-0.189 -0.041)"/><path class="a" d="M17.286,23.7l-1.129-2.093,1.036-2.159-1.036-.31-1.164-1.169-2.578-.578L11.56,15.6v1.063h-.377L8.961,13.654V11.18L7.333,8.532l-2.586.461H3.005l-.876-.574,1.118-.886L2.132,7.79A15.481,15.481,0,0,0,15.5,31.1a16.229,16.229,0,0,0,1.945-.135l-.162-1.878S18,26.3,18,26.206,17.286,23.7,17.286,23.7Z" transform="translate(-0.004 -0.099)"/><path class="a" d="M5.811,5l2.753-.384,1.269-.7,1.428.412L13.543,4.2l.782-1.229,1.14.188,2.768-.26L19,2.063l1.076-.718,1.522.229.555-.084A15.451,15.451,0,0,0,3.6,5.636H3.6ZM16.2,1.542,17.788.67l1.017.587-1.471,1.12-1.405.141-.633-.411Zm-4.689.127.7.291.915-.291.5.864-2.112.555L10.5,2.493S11.493,1.853,11.516,1.669Z" transform="translate(-0.051)"/></g></g></svg>